<svg xmlns="http://www.w3.org/2000/svg" viewBox="0 0 311.85 295.9"><defs><style>.cls-1{fill:#777;}</style></defs><g id="Calque_2" data-name="Calque 2"><g id="Calque_1-2" data-name="Calque 1"><path class="cls-1" d="M25.17,223.22c1.57-1.71,3.08-3.48,4.72-5.13q16.78-16.83,33.62-33.61c8.07-8,17.16-8.08,25.28-.1,4.18,4.12,8.29,8.3,12.45,12.44,4.85,4.81,9,4.83,13.84,0q38.13-38.1,76.22-76.25c5.12-5.15,11-7.49,17.93-5a22.44,22.44,0,0,1,7.59,5.24q33.87,33.61,67.56,67.42c.92.93,1.92,1.78,3.47,3.21v-4.36q0-23,0-46c0-7.76,4.8-13,11.81-13.09,7.18-.08,12.14,5.24,12.14,13.15,0,30.82.12,61.64-.07,92.45-.05,7.8.06,15.89-1.91,23.32-6.21,23.4-27.75,39-52,39q-97.51-.16-195-.3c-7.07,0-14.34.17-21.17-1.32C16.05,288.69-1.38,265.09.09,239c.13-2.36.21-4.73.21-7.1q0-76.74.07-153.47c0-7.43-.14-15.1,1.54-22.24C7.49,32.47,29.14,15.8,53.54,15.8q66.45,0,132.89.23c6.68,0,11.42,3.18,13,8.57,1.51,5.07-.3,10.85-5,13.32a20,20,0,0,1-8.91,2c-40.93.13-81.86,0-122.79.14a83.79,83.79,0,0,0-14.51,1.16C34.53,43.67,26.84,51.93,25.05,65.78a78.9,78.9,0,0,0-.74,10.06q-.07,72.24,0,144.49v2.23Z"/><path class="cls-1" d="M263.89,42c-3.17,1.93-5.71,4.13-8.66,5.11A11.24,11.24,0,0,1,242,42a11.59,11.59,0,0,1,1.36-14.2q12-12.33,24.33-24.33a11.41,11.41,0,0,1,16.23-.06q12.39,11.94,24.34,24.32a11.76,11.76,0,0,1-.35,16.55,12,12,0,0,1-16.58.23c-1-.87-1.94-1.78-3.5-3.23V51.88c0,7.86,0,15.71,0,23.56-.07,7.3-5.19,12.48-12.11,12.42C269,87.8,264,82.61,263.91,75.53c-.08-10,0-20,0-29.92Z"/><path class="cls-1" d="M112,107.88a19.94,19.94,0,1,1-20-20A20,20,0,0,1,112,107.88Z"/></g></g></svg>